<svg width="472" height="153" viewBox="0 0 472 153" fill="none" xmlns="http://www.w3.org/2000/svg">
<path d="M61.3313 10.5963L0 76.3174V142.02L61.3313 76.3174V10.5963Z" fill="#FFFEF8"/>
<path d="M61.332 76.3174V142.02L122.663 76.3174V10.5962L61.332 76.3174Z" fill="#FFFEF8"/>
<path d="M197.516 62.0689L186.793 32.2551L176.297 62.0689H175.688L159.793 20.7707C158.5 17.3482 157.587 16.9679 153.328 16.9679V15.2186H171.81V16.9679C167.931 16.9679 166.486 17.12 166.486 18.6411C166.486 19.0974 166.638 19.858 167.018 20.7707L178.122 50.6606L185.576 28.8326L182.686 20.7707C181.469 17.2721 180.86 16.9679 176.601 16.9679V15.2186H194.931V16.9679C190.976 16.9679 189.226 17.1961 189.226 18.7932C189.226 19.2496 189.379 19.9341 189.683 20.7707L199.874 50.5084L209.381 21.8354C209.609 20.9988 209.761 20.3143 209.761 19.7819C209.761 17.2721 207.328 16.9679 203.829 16.9679V15.2186H219.801V16.9679C215.39 16.9679 213.564 18.1087 212.195 21.7594L198.125 62.0689H197.516ZM239.335 22.8242L232.87 40.2409H246.18L239.335 22.8242ZM232.946 59.5591V61.3083H216.974V59.5591C221.385 59.5591 223.135 59.0267 224.504 55.3L239.867 14.7623H243.137L259.489 55.6802C260.934 59.1788 261.619 59.5591 265.954 59.5591V61.3083H247.32V59.5591C251.275 59.5591 252.873 59.407 252.873 57.8098C252.873 57.3535 252.568 56.669 252.264 55.6802L247.016 42.3705H232.109L227.318 55.2239C227.09 55.9084 227.014 56.4408 227.014 56.8971C227.014 59.1027 229.447 59.5591 232.946 59.5591ZM292.159 59.5591V61.3083H273.222V59.5591C277.481 59.5591 279.154 59.2548 279.154 55.6802V20.8467C279.154 17.2721 277.481 16.9679 273.222 16.9679V15.2186H292.159V16.9679C287.824 16.9679 286.151 17.2721 286.151 20.8467V35.9818H308.892V20.8467C308.892 17.2721 307.218 16.9679 302.883 16.9679V15.2186H321.897V16.9679C317.562 16.9679 315.889 17.2721 315.889 20.8467V55.6802C315.889 59.2548 317.562 59.5591 321.897 59.5591V61.3083H302.883V59.5591C307.218 59.5591 308.892 59.2548 308.892 55.6802V38.2635H286.151V55.6802C286.151 59.2548 287.824 59.5591 292.159 59.5591ZM364.937 61.3083H330.332V59.5591C334.591 59.5591 336.264 59.2548 336.264 55.6802V20.8467C336.264 17.2721 334.591 16.9679 330.332 16.9679V15.2186H349.27V16.9679C344.934 16.9679 343.261 17.1961 343.261 20.8467V55.7563C343.261 58.3422 344.174 59.2548 347.064 59.2548H352.312C359.917 59.2548 362.351 57.6577 365.013 46.9338H366.458L364.937 61.3083ZM163.139 111.906C163.139 126.508 172.646 134.799 182.001 134.799C186.564 134.799 190.367 133.81 194.322 129.627L195.463 130.92C192.345 134.951 186.641 138.069 179.339 138.069C167.855 138.069 155.914 129.399 155.914 114.492C155.914 100.345 166.41 90.458 179.263 90.458C185.195 90.458 188.694 92.9679 190.291 92.9679C191.28 92.9679 191.66 92.3594 192.193 91.1425H193.181L193.79 104.757L192.345 104.909C191.052 97.0749 186.793 92.6637 178.959 92.6637C169.984 92.6637 163.139 100.421 163.139 111.906ZM223.166 135.559V137.308H204.228V135.559C208.487 135.559 210.16 135.255 210.16 131.68V96.8467C210.16 93.2721 208.487 92.9679 204.228 92.9679V91.2186H223.166V92.9679C218.83 92.9679 217.157 93.2721 217.157 96.8467V131.68C217.157 135.255 218.83 135.559 223.166 135.559ZM256.041 93.12V131.604C256.041 135.103 257.638 135.559 263.57 135.559V137.308H241.59V135.559C247.522 135.559 249.12 135.103 249.12 131.604V93.12H246.153C237.103 93.12 234.441 94.2608 233.452 103.844H232.007L232.235 90.8383C233.452 91.0665 234.821 91.2186 238.7 91.2186H266.46C270.339 91.2186 271.708 91.0665 272.925 90.8383L273.153 103.844H271.708C270.719 94.2608 268.058 93.12 258.931 93.12H256.041ZM298.073 98.8242L291.608 116.241H304.918L298.073 98.8242ZM291.684 135.559V137.308H275.712V135.559C280.124 135.559 281.873 135.027 283.242 131.3L298.605 90.7623H301.876L318.228 131.68C319.673 135.179 320.357 135.559 324.692 135.559V137.308H306.059V135.559C310.014 135.559 311.611 135.407 311.611 133.81C311.611 133.353 311.306 132.669 311.002 131.68L305.754 118.37H290.847L286.056 131.224C285.828 131.908 285.752 132.441 285.752 132.897C285.752 135.103 288.186 135.559 291.684 135.559ZM349.681 137.308H331.96V135.559C336.219 135.559 337.892 135.255 337.892 131.832V96.6946C337.892 93.2721 336.219 92.9679 331.96 92.9679V91.2186H350.061C365.652 91.2186 376.757 99.2805 376.757 113.503C376.757 127.421 365.044 137.308 349.681 137.308ZM348.692 135.255H349.453C361.393 135.255 369.227 128.562 369.227 113.959C369.227 100.041 362.154 93.2721 349.377 93.2721H344.889V131.68C344.889 134.722 346.182 135.255 348.692 135.255ZM415.748 107.038V120.12H414.379C413.771 115.404 413.466 114.644 407.534 114.644H399.548V131.832C399.548 134.875 401.069 135.255 403.579 135.255H408.067C417.041 135.255 420.007 134.799 422.593 124.227H424.038L422.669 137.308H386.619V135.559C390.878 135.559 392.551 135.255 392.551 131.68V96.8467C392.551 93.2721 390.878 92.9679 386.619 92.9679V91.2186H420.92L421.072 102.627H419.779C418.714 94.0327 416.052 93.3482 406.926 93.3482H399.548V112.59H407.534C413.466 112.59 413.771 111.754 414.379 107.038H415.748ZM467.342 137.308H432.736V135.559C436.996 135.559 438.669 135.255 438.669 131.68V96.8467C438.669 93.2721 436.996 92.9679 432.736 92.9679V91.2186H451.674V92.9679C447.339 92.9679 445.666 93.1961 445.666 96.8467V131.756C445.666 134.342 446.579 135.255 449.469 135.255H454.717C462.322 135.255 464.756 133.658 467.418 122.934H468.863L467.342 137.308Z" fill="#FFFEF8"/>
</svg>
