<svg width="472" height="153" viewBox="0 0 472 153" fill="none" xmlns="http://www.w3.org/2000/svg">
<path d="M61.6672 10.5963L0.335938 76.3174V142.02L61.6672 76.3174V10.5963Z" fill="currentColor"/>
<path d="M61.668 76.3174V142.02L122.999 76.3174V10.5962L61.668 76.3174Z" fill="currentColor"/>
<path d="M197.852 62.0689L187.129 32.2551L176.633 62.0689H176.024L160.129 20.7707C158.836 17.3482 157.923 16.9679 153.664 16.9679V15.2186H172.146V16.9679C168.267 16.9679 166.822 17.12 166.822 18.6411C166.822 19.0974 166.974 19.858 167.354 20.7707L178.458 50.6606L185.912 28.8326L183.022 20.7707C181.805 17.2721 181.196 16.9679 176.937 16.9679V15.2186H195.267V16.9679C191.312 16.9679 189.562 17.1961 189.562 18.7932C189.562 19.2496 189.714 19.9341 190.019 20.7707L200.21 50.5084L209.717 21.8354C209.945 20.9988 210.097 20.3143 210.097 19.7819C210.097 17.2721 207.664 16.9679 204.165 16.9679V15.2186H220.137V16.9679C215.726 16.9679 213.9 18.1087 212.531 21.7594L198.461 62.0689H197.852ZM239.671 22.8242L233.206 40.2409H246.516L239.671 22.8242ZM233.282 59.5591V61.3083H217.31V59.5591C221.721 59.5591 223.471 59.0267 224.84 55.3L240.203 14.7623H243.473L259.825 55.6802C261.27 59.1788 261.955 59.5591 266.29 59.5591V61.3083H247.656V59.5591C251.611 59.5591 253.208 59.407 253.208 57.8098C253.208 57.3535 252.904 56.669 252.6 55.6802L247.352 42.3705H232.445L227.654 55.2239C227.426 55.9084 227.35 56.4408 227.35 56.8971C227.35 59.1027 229.783 59.5591 233.282 59.5591ZM292.495 59.5591V61.3083H273.558V59.5591C277.817 59.5591 279.49 59.2548 279.49 55.6802V20.8467C279.49 17.2721 277.817 16.9679 273.558 16.9679V15.2186H292.495V16.9679C288.16 16.9679 286.487 17.2721 286.487 20.8467V35.9818H309.228V20.8467C309.228 17.2721 307.554 16.9679 303.219 16.9679V15.2186H322.233V16.9679C317.898 16.9679 316.225 17.2721 316.225 20.8467V55.6802C316.225 59.2548 317.898 59.5591 322.233 59.5591V61.3083H303.219V59.5591C307.554 59.5591 309.228 59.2548 309.228 55.6802V38.2635H286.487V55.6802C286.487 59.2548 288.16 59.5591 292.495 59.5591ZM365.273 61.3083H330.668V59.5591C334.927 59.5591 336.6 59.2548 336.6 55.6802V20.8467C336.6 17.2721 334.927 16.9679 330.668 16.9679V15.2186H349.605V16.9679C345.27 16.9679 343.597 17.1961 343.597 20.8467V55.7563C343.597 58.3422 344.51 59.2548 347.4 59.2548H352.648C360.253 59.2548 362.687 57.6577 365.349 46.9338H366.794L365.273 61.3083ZM163.475 111.906C163.475 126.508 172.982 134.799 182.337 134.799C186.9 134.799 190.703 133.81 194.658 129.627L195.799 130.92C192.681 134.951 186.976 138.069 179.675 138.069C168.191 138.069 156.25 129.399 156.25 114.492C156.25 100.345 166.746 90.458 179.599 90.458C185.531 90.458 189.03 92.9679 190.627 92.9679C191.616 92.9679 191.996 92.3594 192.529 91.1425H193.517L194.126 104.757L192.681 104.909C191.388 97.0749 187.129 92.6637 179.295 92.6637C170.32 92.6637 163.475 100.421 163.475 111.906ZM223.502 135.559V137.308H204.564V135.559C208.823 135.559 210.496 135.255 210.496 131.68V96.8467C210.496 93.2721 208.823 92.9679 204.564 92.9679V91.2186H223.502V92.9679C219.166 92.9679 217.493 93.2721 217.493 96.8467V131.68C217.493 135.255 219.166 135.559 223.502 135.559ZM256.377 93.12V131.604C256.377 135.103 257.974 135.559 263.906 135.559V137.308H241.926V135.559C247.858 135.559 249.456 135.103 249.456 131.604V93.12H246.489C237.439 93.12 234.777 94.2608 233.788 103.844H232.343L232.571 90.8383C233.788 91.0665 235.157 91.2186 239.036 91.2186H266.796C270.675 91.2186 272.044 91.0665 273.261 90.8383L273.489 103.844H272.044C271.055 94.2608 268.393 93.12 259.267 93.12H256.377ZM298.409 98.8242L291.944 116.241H305.254L298.409 98.8242ZM292.02 135.559V137.308H276.048V135.559C280.46 135.559 282.209 135.027 283.578 131.3L298.941 90.7623H302.212L318.563 131.68C320.009 135.179 320.693 135.559 325.028 135.559V137.308H306.395V135.559C310.349 135.559 311.947 135.407 311.947 133.81C311.947 133.353 311.642 132.669 311.338 131.68L306.09 118.37H291.183L286.392 131.224C286.164 131.908 286.088 132.441 286.088 132.897C286.088 135.103 288.521 135.559 292.02 135.559ZM350.017 137.308H332.296V135.559C336.555 135.559 338.228 135.255 338.228 131.832V96.6946C338.228 93.2721 336.555 92.9679 332.296 92.9679V91.2186H350.397C365.988 91.2186 377.092 99.2805 377.092 113.503C377.092 127.421 365.38 137.308 350.017 137.308ZM349.028 135.255H349.788C361.729 135.255 369.563 128.562 369.563 113.959C369.563 100.041 362.49 93.2721 349.712 93.2721H345.225V131.68C345.225 134.722 346.518 135.255 349.028 135.255ZM416.084 107.038V120.12H414.715C414.107 115.404 413.802 114.644 407.87 114.644H399.884V131.832C399.884 134.875 401.405 135.255 403.915 135.255H408.402C417.377 135.255 420.343 134.799 422.929 124.227H424.374L423.005 137.308H386.955V135.559C391.214 135.559 392.887 135.255 392.887 131.68V96.8467C392.887 93.2721 391.214 92.9679 386.955 92.9679V91.2186H421.256L421.408 102.627H420.115C419.05 94.0327 416.388 93.3482 407.262 93.3482H399.884V112.59H407.87C413.802 112.59 414.107 111.754 414.715 107.038H416.084ZM467.678 137.308H433.072V135.559C437.332 135.559 439.005 135.255 439.005 131.68V96.8467C439.005 93.2721 437.332 92.9679 433.072 92.9679V91.2186H452.01V92.9679C447.675 92.9679 446.002 93.1961 446.002 96.8467V131.756C446.002 134.342 446.915 135.255 449.805 135.255H455.053C462.658 135.255 465.092 133.658 467.754 122.934H469.199L467.678 137.308Z" fill="currentColor"/>
</svg>
