<svg xmlns="http://www.w3.org/2000/svg" xmlns:xlink="http://www.w3.org/1999/xlink" viewBox="0 0 118 32"><g transform="translate(0 0.953)" id="ss1642149436_1"><path d="M 0 30.821 L 0 0 L 117.971 0 L 117.971 30.821 Z" fill="transparent"></path><path d="M 14.949 0 L 0 15.394 L 0 30.783 L 14.949 15.394 Z" fill="currentColor"></path><path d="M 14.949 15.394 L 14.949 30.783 L 29.894 15.394 L 29.894 0 Z" fill="currentColor"></path><path d="M 46.383 5.491 L 43.535 13.821 L 43.37 13.821 L 39.057 2.282 C 38.706 1.326 38.458 1.22 37.303 1.22 L 37.303 0.731 L 42.317 0.731 L 42.317 1.22 C 41.265 1.22 40.873 1.262 40.873 1.687 C 40.873 1.815 40.914 2.027 41.017 2.282 L 44.03 10.634 L 46.053 4.535 L 45.268 2.282 C 44.938 1.305 44.773 1.22 43.617 1.22 L 43.617 0.731 L 48.591 0.731 L 48.591 1.22 C 47.518 1.22 47.043 1.284 47.043 1.73 C 47.043 1.857 47.084 2.049 47.167 2.282 L 49.932 10.591 L 52.512 2.58 C 52.574 2.346 52.615 2.155 52.615 2.006 C 52.615 1.305 51.955 1.22 51.005 1.22 L 51.005 0.731 L 55.339 0.731 L 55.339 1.22 C 54.142 1.22 53.647 1.539 53.275 2.559 L 49.458 13.821 L 49.292 13.821 Z" fill="currentColor"></path><path d="M 58.084 13.609 L 53.75 13.609 L 53.75 13.12 C 54.947 13.12 55.422 12.971 55.793 11.93 L 59.962 0.604 L 60.849 0.604 L 65.286 12.036 C 65.678 13.014 65.864 13.12 67.04 13.12 L 67.04 13.609 L 61.984 13.609 L 61.984 13.12 C 63.057 13.12 63.49 13.078 63.49 12.631 C 63.49 12.504 63.408 12.313 63.325 12.036 L 61.901 8.318 L 57.857 8.318 L 56.557 11.909 C 56.495 12.1 56.474 12.249 56.474 12.376 C 56.474 12.993 57.134 13.12 58.084 13.12 Z M 58.063 7.722 L 61.674 7.722 L 59.817 2.856 Z" fill="currentColor"></path><path d="M 73.334 13.609 L 68.196 13.609 L 68.196 13.12 C 69.351 13.12 69.805 13.035 69.805 12.036 L 69.805 2.304 C 69.805 1.305 69.351 1.22 68.196 1.22 L 68.196 0.731 L 73.334 0.731 L 73.334 1.22 C 72.158 1.22 71.704 1.305 71.704 2.304 L 71.704 6.532 L 77.874 6.532 L 77.874 2.304 C 77.874 1.305 77.42 1.22 76.244 1.22 L 76.244 0.731 L 81.403 0.731 L 81.403 1.22 C 80.227 1.22 79.773 1.305 79.773 2.304 L 79.773 12.036 C 79.773 13.035 80.227 13.12 81.403 13.12 L 81.403 13.609 L 76.244 13.609 L 76.244 13.12 C 77.42 13.12 77.874 13.035 77.874 12.036 L 77.874 7.17 L 71.704 7.17 L 71.704 12.036 C 71.704 13.035 72.158 13.12 73.334 13.12 Z" fill="currentColor"></path><path d="M 82.868 13.609 L 82.868 13.12 C 84.024 13.12 84.478 13.035 84.478 12.036 L 84.478 2.304 C 84.478 1.305 84.024 1.22 82.868 1.22 L 82.868 0.731 L 88.007 0.731 L 88.007 1.22 C 86.83 1.22 86.376 1.284 86.376 2.304 L 86.376 12.058 C 86.376 12.78 86.624 13.035 87.408 13.035 L 88.832 13.035 C 90.896 13.035 91.556 12.589 92.278 9.592 L 92.67 9.592 L 92.258 13.609 Z" fill="currentColor"></path><path d="M 45.083 29.908 C 46.321 29.908 47.353 29.631 48.426 28.463 L 48.735 28.824 C 47.889 29.95 46.341 30.821 44.36 30.821 C 41.244 30.821 38.004 28.399 38.004 24.234 C 38.004 20.069 40.852 17.519 44.34 17.519 C 45.949 17.519 46.899 18.22 47.332 18.22 C 47.6 18.22 47.703 18.05 47.848 17.71 L 48.116 17.71 L 48.281 21.514 L 47.889 21.556 C 47.538 19.368 46.383 18.135 44.257 18.135 C 41.822 18.135 39.965 20.303 39.965 23.511 C 39.965 27.591 42.544 29.908 45.083 29.908 Z" fill="currentColor"></path><path d="M 55.422 30.609 L 50.283 30.609 L 50.283 30.12 C 51.439 30.12 51.893 30.035 51.893 29.036 L 51.893 19.304 C 51.893 18.305 51.439 18.22 50.283 18.22 L 50.283 17.731 L 55.422 17.731 L 55.422 18.22 C 54.245 18.22 53.791 18.305 53.791 19.304 L 53.791 29.036 C 53.791 30.035 54.245 30.12 55.422 30.12 Z" fill="currentColor"></path><path d="M 63.511 29.015 C 63.511 29.993 63.944 30.12 65.554 30.12 L 65.554 30.609 L 59.59 30.609 L 59.59 30.12 C 61.2 30.12 61.633 29.993 61.633 29.015 L 61.633 18.263 L 60.828 18.263 C 58.373 18.263 57.65 18.581 57.382 21.259 L 56.99 21.259 L 57.052 17.625 C 57.382 17.689 57.754 17.731 58.806 17.731 L 66.338 17.731 C 67.391 17.731 67.762 17.689 68.092 17.625 L 68.154 21.259 L 67.762 21.259 C 67.494 18.581 66.772 18.263 64.295 18.263 L 63.511 18.263 Z" fill="currentColor"></path><path d="M 72.364 30.609 L 68.031 30.609 L 68.031 30.12 C 69.227 30.12 69.702 29.971 70.073 28.93 L 74.242 17.604 L 75.129 17.604 L 79.566 29.036 C 79.958 30.014 80.144 30.12 81.32 30.12 L 81.32 30.609 L 76.264 30.609 L 76.264 30.12 C 77.338 30.12 77.771 30.078 77.771 29.631 C 77.771 29.504 77.688 29.313 77.606 29.036 L 76.182 25.318 L 72.137 25.318 L 70.837 28.909 C 70.775 29.1 70.754 29.249 70.754 29.376 C 70.754 29.993 71.415 30.12 72.364 30.12 Z M 72.344 24.723 L 75.955 24.723 L 74.098 19.856 Z" fill="currentColor"></path><path d="M 82.476 30.609 L 82.476 30.12 C 83.632 30.12 84.086 30.035 84.086 29.079 L 84.086 19.261 C 84.086 18.305 83.632 18.22 82.476 18.22 L 82.476 17.731 L 87.388 17.731 C 91.618 17.731 94.631 19.984 94.631 23.958 C 94.631 27.931 91.453 30.609 87.284 30.609 Z M 87.222 30.035 C 90.462 30.035 92.588 28.165 92.588 24.085 C 92.588 20.005 90.669 18.305 87.202 18.305 L 85.984 18.305 L 85.984 29.036 C 85.984 29.886 86.335 30.035 87.016 30.035 Z" fill="currentColor"></path><path d="M 104.392 25.806 L 104.021 25.806 C 103.855 24.489 103.773 24.276 102.163 24.276 L 99.996 24.276 L 99.996 29.079 C 99.996 29.929 100.409 30.035 101.09 30.035 L 102.308 30.035 C 104.743 30.035 105.548 29.908 106.249 26.954 L 106.641 26.954 L 106.27 30.609 L 96.488 30.609 L 96.488 30.12 C 97.644 30.12 98.098 30.035 98.098 29.036 L 98.098 19.304 C 98.098 18.305 97.644 18.22 96.488 18.22 L 96.488 17.731 L 105.795 17.731 L 105.837 20.919 L 105.486 20.919 C 105.197 18.518 104.475 18.326 101.998 18.326 L 99.996 18.326 L 99.996 23.703 L 102.163 23.703 C 103.773 23.703 103.855 23.469 104.021 22.151 L 104.392 22.151 Z" fill="currentColor"></path><path d="M 108.169 30.609 L 108.169 30.12 C 109.324 30.12 109.778 30.035 109.778 29.036 L 109.778 19.304 C 109.778 18.305 109.324 18.22 108.169 18.22 L 108.169 17.731 L 113.307 17.731 L 113.307 18.22 C 112.131 18.22 111.677 18.284 111.677 19.304 L 111.677 29.058 C 111.677 29.78 111.924 30.035 112.709 30.035 L 114.133 30.035 C 116.196 30.035 116.857 29.589 117.579 26.593 L 117.971 26.593 L 117.558 30.609 Z" fill="currentColor"></path></g></svg>
